<?xml version="1.0" encoding="UTF-8"?><svg xmlns="http://www.w3.org/2000/svg" xmlns:xlink="http://www.w3.org/1999/xlink" height="85.0" preserveAspectRatio="xMidYMid meet" version="1.0" viewBox="0.0 0.0 495.5 85.0" width="495.5" zoomAndPan="magnify"><defs><clipPath id="a"><path d="M 0 0 L 495.46875 0 L 495.46875 85.03125 L 0 85.03125 Z M 0 0"/></clipPath></defs><g><g clip-path="url(#a)" id="change1_1"><path d="M 331.648438 63.992188 C 332.238281 63.988281 332.820312 63.945312 333.402344 63.882812 C 334.046875 63.789062 334.675781 63.667969 335.308594 63.515625 C 336.015625 63.320312 336.714844 63.089844 337.398438 62.820312 C 338.046875 62.546875 338.679688 62.242188 339.300781 61.910156 C 340 61.507812 340.671875 61.070312 341.320312 60.597656 C 341.996094 60.078125 342.636719 59.523438 343.253906 58.9375 C 343.964844 58.230469 344.632812 57.488281 345.257812 56.703125 C 345.796875 56 346.289062 55.273438 346.742188 54.515625 C 347.167969 53.765625 347.546875 52.996094 347.890625 52.207031 C 348.261719 51.285156 348.578125 50.351562 348.851562 49.394531 C 348.867188 49.332031 348.882812 49.269531 348.902344 49.207031 C 348.898438 49.210938 348.898438 49.210938 348.898438 49.214844 C 349.160156 48.171875 349.363281 47.117188 349.515625 46.054688 C 349.644531 44.976562 349.71875 43.902344 349.734375 42.820312 C 349.726562 42.136719 349.691406 41.457031 349.636719 40.777344 C 347.613281 41.332031 345.617188 41.96875 343.667969 42.742188 C 342.257812 43.320312 340.882812 43.972656 339.546875 44.707031 C 338.289062 45.421875 337.066406 46.195312 335.90625 47.058594 C 335.019531 47.730469 334.175781 48.453125 333.371094 49.222656 C 332.5 50.089844 331.6875 51.007812 330.925781 51.972656 C 330.160156 52.972656 329.441406 54.003906 328.800781 55.089844 C 328.417969 55.769531 328.070312 56.460938 327.761719 57.179688 C 327.582031 57.632812 327.425781 58.09375 327.289062 58.5625 C 327.203125 58.917969 327.132812 59.277344 327.078125 59.640625 C 327.050781 59.921875 327.03125 60.207031 327.023438 60.488281 C 327.027344 60.6875 327.039062 60.882812 327.058594 61.078125 C 327.085938 61.246094 327.117188 61.414062 327.15625 61.582031 C 327.191406 61.703125 327.230469 61.820312 327.273438 61.9375 C 327.324219 62.054688 327.378906 62.171875 327.4375 62.285156 C 327.496094 62.378906 327.558594 62.472656 327.621094 62.566406 C 327.695312 62.652344 327.765625 62.742188 327.84375 62.824219 C 327.9375 62.917969 328.035156 63.007812 328.140625 63.09375 C 328.25 63.171875 328.359375 63.242188 328.46875 63.3125 C 328.625 63.398438 328.785156 63.472656 328.945312 63.542969 C 329.136719 63.617188 329.328125 63.683594 329.523438 63.742188 C 329.824219 63.816406 330.125 63.871094 330.429688 63.917969 C 330.835938 63.964844 331.242188 63.984375 331.648438 63.992188 Z M 217.089844 83.199219 C 214.019531 81.761719 211.539062 79.160156 210.171875 76.070312 C 209.5625 74.6875 209.445312 73.152344 209.578125 71.664062 C 209.65625 70.820312 209.78125 69.964844 210.039062 69.15625 C 210.316406 68.28125 210.675781 67.453125 211.09375 66.636719 C 211.988281 64.867188 213.21875 63.320312 214.523438 61.84375 C 215.953125 60.230469 217.515625 58.730469 219.109375 57.285156 C 222.464844 54.246094 226.054688 51.488281 229.652344 48.738281 C 233.097656 46.109375 236.566406 43.492188 239.703125 40.488281 C 240.792969 39.40625 241.824219 38.28125 242.78125 37.078125 C 243.382812 36.28125 243.953125 35.460938 244.464844 34.605469 C 244.460938 34.617188 244.453125 34.628906 244.445312 34.640625 C 244.453125 34.625 244.464844 34.609375 244.472656 34.59375 C 244.503906 34.539062 244.535156 34.488281 244.566406 34.433594 C 244.542969 34.476562 244.515625 34.519531 244.492188 34.5625 C 244.90625 33.839844 245.277344 33.101562 245.617188 32.339844 C 245.898438 31.664062 246.140625 30.980469 246.347656 30.28125 C 246.519531 29.617188 246.65625 28.949219 246.761719 28.269531 C 246.824219 27.730469 246.867188 27.1875 246.882812 26.644531 C 246.871094 26.097656 246.839844 25.554688 246.777344 25.011719 C 246.695312 24.445312 246.589844 23.890625 246.460938 23.332031 C 246.308594 22.78125 246.136719 22.238281 245.941406 21.699219 C 245.789062 21.332031 245.625 20.976562 245.449219 20.621094 C 245.261719 20.300781 245.0625 19.996094 244.847656 19.691406 C 244.601562 19.390625 244.347656 19.101562 244.082031 18.824219 C 243.648438 18.410156 243.203125 18.019531 242.742188 17.644531 C 242.132812 17.179688 241.503906 16.75 240.847656 16.34375 C 239.96875 15.84375 239.070312 15.394531 238.140625 14.996094 C 237.105469 14.585938 236.058594 14.234375 234.988281 13.933594 C 233.53125 13.558594 232.0625 13.277344 230.574219 13.058594 C 228.632812 12.824219 226.691406 12.703125 224.730469 12.675781 C 221.917969 12.6875 219.125 12.882812 216.335938 13.226562 C 212.859375 13.707031 209.429688 14.414062 206.027344 15.273438 C 201.636719 16.425781 197.269531 17.738281 193.042969 19.402344 C 183.289062 23.445312 174.050781 28.625 164.84375 33.769531 C 164.886719 33.746094 164.929688 33.71875 164.976562 33.695312 C 164.820312 33.78125 164.664062 33.867188 164.511719 33.957031 C 164.515625 33.953125 164.515625 33.953125 164.519531 33.953125 C 163.59375 34.46875 162.671875 34.988281 161.746094 35.503906 C 161.28125 35.765625 160.816406 36.023438 160.351562 36.285156 C 160.34375 36.289062 160.339844 36.292969 160.332031 36.292969 C 160.269531 36.335938 160.203125 36.371094 160.136719 36.402344 C 160.097656 36.421875 160.058594 36.445312 160.019531 36.464844 C 159.976562 36.492188 159.929688 36.519531 159.882812 36.546875 C 159.875 36.550781 159.863281 36.558594 159.855469 36.5625 C 159.800781 36.59375 159.746094 36.625 159.691406 36.652344 C 159.21875 36.917969 158.746094 37.179688 158.273438 37.445312 C 156.226562 38.585938 154.175781 39.722656 152.117188 40.84375 C 150.167969 41.902344 148.195312 42.917969 146.21875 43.925781 C 144.242188 44.933594 142.257812 45.917969 140.238281 46.816406 C 136.019531 48.699219 131.738281 50.445312 127.410156 52.050781 C 124.957031 52.957031 122.492188 53.824219 120.015625 54.667969 C 117.566406 55.5 115.089844 56.234375 112.601562 56.933594 C 107.625 58.324219 102.609375 59.554688 97.539062 60.523438 C 92.789062 61.433594 88.027344 62.257812 83.238281 62.964844 C 78.136719 63.710938 73.015625 64.386719 67.878906 64.875 C 62.976562 65.339844 58.058594 65.71875 53.144531 66.003906 C 48.359375 66.28125 43.550781 66.222656 38.765625 66.195312 C 36.234375 66.179688 33.703125 66.160156 31.171875 66.058594 C 28.644531 65.957031 26.125 65.769531 23.605469 65.554688 C 22.363281 65.449219 21.121094 65.328125 19.878906 65.199219 C 19.300781 65.144531 18.722656 65.074219 18.148438 65.003906 C 17.886719 64.972656 17.621094 64.941406 17.363281 64.90625 C 17.195312 64.882812 17.027344 64.867188 16.863281 64.835938 C 16.734375 64.824219 16.605469 64.804688 16.472656 64.789062 C 14.316406 64.503906 12.175781 64.144531 10.03125 63.785156 C 8.027344 63.449219 6.015625 63.09375 4.050781 62.566406 C 3.007812 62.285156 1.917969 62.007812 0.976562 61.46875 C 0.9375 61.449219 0.898438 61.425781 0.859375 61.402344 C 0.828125 61.386719 0.800781 61.363281 0.769531 61.347656 C 0.0351562 60.882812 -0.199219 59.859375 0.179688 59.101562 C 0.585938 58.277344 1.710938 57.824219 2.542969 58.300781 C 2.710938 58.398438 2.882812 58.480469 3.058594 58.558594 C 3.695312 58.800781 4.34375 58.988281 5 59.167969 C 6.886719 59.648438 8.800781 59.996094 10.722656 60.320312 C 12.828125 60.671875 14.9375 61.027344 17.054688 61.308594 C 17.367188 61.347656 17.675781 61.390625 17.984375 61.433594 C 17.933594 61.425781 17.878906 61.417969 17.824219 61.410156 C 21.574219 61.863281 25.347656 62.226562 29.121094 62.425781 C 33.066406 62.632812 37.007812 62.664062 40.957031 62.675781 C 40.882812 62.675781 40.808594 62.675781 40.730469 62.675781 C 43.460938 62.679688 46.191406 62.679688 48.917969 62.625 C 51.804688 62.566406 54.6875 62.390625 57.5625 62.179688 C 63.429688 61.75 69.289062 61.246094 75.125 60.511719 C 75.050781 60.523438 74.976562 60.53125 74.898438 60.542969 C 80.136719 59.859375 85.363281 59.117188 90.566406 58.214844 C 93.140625 57.765625 95.710938 57.285156 98.273438 56.78125 C 101.144531 56.222656 103.988281 55.546875 106.820312 54.824219 C 106.808594 54.828125 106.796875 54.832031 106.78125 54.835938 C 111.003906 53.738281 115.199219 52.574219 119.332031 51.167969 C 123.304688 49.820312 127.246094 48.382812 131.144531 46.832031 C 131.074219 46.863281 131.007812 46.890625 130.933594 46.917969 C 135.09375 45.242188 139.210938 43.484375 143.222656 41.480469 C 147.308594 39.4375 151.324219 37.269531 155.316406 35.054688 C 156.238281 34.542969 157.15625 34.03125 158.074219 33.515625 C 158.25 33.410156 158.4375 33.316406 158.617188 33.214844 C 158.660156 33.1875 158.703125 33.164062 158.75 33.140625 C 159.058594 32.964844 159.371094 32.792969 159.679688 32.617188 C 160.765625 32.011719 161.851562 31.402344 162.9375 30.792969 C 162.894531 30.820312 162.851562 30.84375 162.8125 30.867188 C 171.019531 26.277344 179.246094 21.6875 187.828125 17.8125 C 190.015625 16.828125 192.222656 15.898438 194.484375 15.089844 C 196.589844 14.332031 198.734375 13.683594 200.878906 13.042969 C 205.167969 11.753906 209.527344 10.738281 213.945312 10.007812 C 218.597656 9.238281 223.347656 8.980469 228.050781 9.261719 C 232.382812 9.519531 236.703125 10.441406 240.652344 12.246094 C 242.578125 13.125 244.402344 14.328125 245.96875 15.75 C 246.667969 16.378906 247.308594 17.066406 247.859375 17.832031 C 248.460938 18.664062 248.9375 19.601562 249.289062 20.566406 C 249.960938 22.414062 250.378906 24.359375 250.40625 26.328125 C 250.433594 28.277344 250.101562 30.222656 249.492188 32.070312 C 247.433594 38.332031 242.515625 43.046875 237.515625 47.089844 C 234.539062 49.496094 231.460938 51.773438 228.441406 54.121094 C 225.351562 56.527344 222.332031 59.027344 219.515625 61.746094 C 218.214844 63.03125 216.964844 64.359375 215.8125 65.785156 C 215.414062 66.316406 215.042969 66.859375 214.691406 67.425781 C 214.320312 68.074219 213.984375 68.734375 213.683594 69.421875 C 213.582031 69.695312 213.488281 69.972656 213.398438 70.253906 C 213.300781 70.648438 213.21875 71.039062 213.15625 71.441406 C 213.101562 71.910156 213.070312 72.371094 213.058594 72.84375 C 213.066406 73.0625 213.078125 73.28125 213.101562 73.5 C 213.132812 73.683594 213.164062 73.867188 213.203125 74.050781 C 213.265625 74.25 213.332031 74.445312 213.402344 74.644531 C 213.542969 74.953125 213.691406 75.25 213.851562 75.546875 C 214.09375 75.957031 214.347656 76.355469 214.621094 76.742188 C 214.902344 77.105469 215.199219 77.453125 215.511719 77.785156 C 215.882812 78.152344 216.269531 78.492188 216.671875 78.820312 C 217.054688 79.101562 217.445312 79.363281 217.847656 79.613281 C 218.253906 79.835938 218.664062 80.039062 219.089844 80.222656 C 219.695312 80.457031 220.308594 80.660156 220.933594 80.839844 C 221.71875 81.035156 222.507812 81.1875 223.3125 81.304688 C 224.34375 81.425781 225.371094 81.484375 226.40625 81.5 C 227.675781 81.484375 228.933594 81.402344 230.191406 81.265625 C 231.953125 81.035156 233.695312 80.691406 235.421875 80.257812 C 237.695312 79.652344 239.921875 78.902344 242.113281 78.035156 C 242.042969 78.0625 241.972656 78.089844 241.902344 78.121094 C 244.730469 76.972656 247.46875 75.652344 250.132812 74.164062 C 250.066406 74.203125 250 74.238281 249.933594 74.277344 C 252.515625 72.808594 254.992188 71.1875 257.378906 69.425781 C 260.640625 66.957031 263.710938 64.261719 266.742188 61.519531 C 269.371094 59.136719 271.984375 56.738281 274.621094 54.367188 C 277.269531 51.992188 279.945312 49.644531 282.671875 47.363281 C 285.421875 45.0625 288.246094 42.851562 291.121094 40.707031 C 291.109375 40.714844 291.101562 40.722656 291.089844 40.730469 C 294.28125 38.351562 297.539062 36.066406 300.847656 33.851562 C 304.292969 31.546875 307.804688 29.308594 311.417969 27.285156 C 315.902344 24.773438 320.660156 22.789062 325.699219 21.726562 C 327.917969 21.257812 330.214844 21.054688 332.480469 21.113281 C 334.542969 21.160156 336.570312 21.488281 338.558594 22.039062 C 341.421875 22.835938 344.066406 24.351562 346.328125 26.257812 C 348.550781 28.128906 350.285156 30.613281 351.40625 33.285156 C 351.835938 34.3125 352.1875 35.363281 352.464844 36.433594 C 352.996094 36.3125 353.527344 36.195312 354.058594 36.082031 C 356.953125 35.457031 359.882812 34.984375 362.839844 34.742188 C 365.394531 34.535156 367.960938 34.515625 370.523438 34.410156 C 373.785156 34.28125 377.035156 34.042969 380.277344 33.648438 C 380.203125 33.65625 380.128906 33.667969 380.054688 33.679688 C 383.769531 33.199219 387.4375 32.488281 391.066406 31.554688 C 395.492188 30.378906 399.828125 28.921875 404.085938 27.230469 C 404.015625 27.257812 403.945312 27.285156 403.875 27.316406 C 409.652344 24.988281 415.207031 22.195312 420.648438 19.164062 C 420.625 19.175781 420.601562 19.191406 420.578125 19.203125 C 424.894531 16.78125 429.140625 14.226562 433.488281 11.863281 C 435.574219 10.730469 437.6875 9.652344 439.839844 8.652344 C 441.921875 7.691406 444.050781 6.832031 446.199219 6.03125 C 450.226562 4.53125 454.363281 3.324219 458.539062 2.316406 C 462.070312 1.460938 465.640625 0.769531 469.246094 0.324219 C 473.441406 -0.191406 477.679688 -0.113281 481.828125 0.722656 C 486.203125 1.597656 490.402344 3.15625 494.496094 4.902344 C 495.382812 5.28125 495.703125 6.445312 495.296875 7.269531 C 495.085938 7.691406 494.710938 8.019531 494.265625 8.164062 C 493.808594 8.3125 493.363281 8.253906 492.929688 8.070312 C 492.570312 7.917969 492.214844 7.765625 491.851562 7.617188 C 491.925781 7.644531 491.996094 7.675781 492.070312 7.707031 C 489.390625 6.597656 486.671875 5.609375 483.878906 4.832031 C 483.929688 4.84375 483.980469 4.859375 484.035156 4.871094 C 483.976562 4.855469 483.921875 4.839844 483.863281 4.828125 C 483.847656 4.820312 483.828125 4.816406 483.8125 4.8125 C 483.828125 4.816406 483.84375 4.820312 483.863281 4.824219 C 482.191406 4.386719 480.503906 4.03125 478.789062 3.792969 C 477.421875 3.628906 476.054688 3.535156 474.679688 3.519531 C 472.800781 3.527344 470.929688 3.671875 469.066406 3.902344 C 469.117188 3.894531 469.167969 3.886719 469.21875 3.882812 C 465.285156 4.394531 461.402344 5.214844 457.5625 6.195312 C 457.632812 6.175781 457.707031 6.15625 457.78125 6.136719 C 453.597656 7.222656 449.472656 8.523438 445.445312 10.097656 C 441.265625 11.773438 437.257812 13.796875 433.320312 15.984375 C 429.011719 18.398438 424.773438 20.941406 420.433594 23.308594 C 415.996094 25.742188 411.460938 27.996094 406.785156 29.9375 C 402.164062 31.855469 397.433594 33.488281 392.609375 34.796875 C 387.886719 36.078125 383.078125 36.925781 378.214844 37.433594 C 374.773438 37.792969 371.316406 37.929688 367.863281 38.042969 C 365.4375 38.121094 363.019531 38.226562 360.609375 38.519531 C 358.085938 38.855469 355.578125 39.335938 353.097656 39.910156 C 353.480469 43.378906 353.160156 46.933594 352.257812 50.304688 C 351.828125 51.863281 351.273438 53.367188 350.578125 54.824219 C 349.894531 56.261719 349.019531 57.605469 348.046875 58.863281 C 346.269531 61.15625 344.078125 63.1875 341.578125 64.667969 C 339.464844 65.921875 337.160156 66.800781 334.746094 67.246094 C 333.679688 67.441406 332.597656 67.523438 331.519531 67.519531 C 330.597656 67.515625 329.660156 67.429688 328.765625 67.191406 C 327.03125 66.726562 325.429688 65.792969 324.480469 64.222656 C 323.492188 62.582031 323.34375 60.660156 323.632812 58.800781 C 323.972656 56.621094 324.972656 54.605469 326.097656 52.734375 C 326.730469 51.683594 327.453125 50.6875 328.210938 49.71875 C 328.984375 48.734375 329.808594 47.785156 330.699219 46.902344 C 334.742188 42.910156 339.871094 40.1875 345.230469 38.410156 C 346.488281 37.996094 347.761719 37.621094 349.039062 37.277344 C 349.03125 37.246094 349.023438 37.21875 349.015625 37.1875 C 348.804688 36.421875 348.554688 35.671875 348.269531 34.929688 C 348.007812 34.316406 347.726562 33.71875 347.414062 33.128906 C 347.085938 32.554688 346.734375 32 346.351562 31.457031 C 345.894531 30.859375 345.410156 30.292969 344.890625 29.746094 C 344.410156 29.277344 343.910156 28.832031 343.390625 28.410156 C 342.738281 27.917969 342.070312 27.46875 341.375 27.054688 C 340.769531 26.71875 340.152344 26.410156 339.519531 26.128906 C 338.726562 25.808594 337.925781 25.53125 337.101562 25.296875 C 336.238281 25.082031 335.367188 24.917969 334.488281 24.792969 C 333.535156 24.691406 332.589844 24.636719 331.636719 24.628906 C 330.601562 24.648438 329.574219 24.722656 328.542969 24.839844 C 327.234375 25.019531 325.945312 25.269531 324.660156 25.585938 C 322.933594 26.046875 321.246094 26.613281 319.582031 27.257812 C 319.628906 27.238281 319.679688 27.21875 319.726562 27.199219 C 317.609375 28.054688 315.558594 29.039062 313.554688 30.132812 C 310.015625 32.117188 306.582031 34.285156 303.207031 36.527344 C 299.863281 38.75 296.578125 41.054688 293.355469 43.441406 C 293.207031 43.550781 293.0625 43.660156 292.914062 43.769531 C 292.925781 43.761719 292.933594 43.757812 292.9375 43.75 C 289.789062 46.109375 286.710938 48.5625 283.710938 51.105469 C 280.636719 53.714844 277.632812 56.402344 274.644531 59.105469 C 271.726562 61.75 268.835938 64.425781 265.878906 67.027344 C 262.046875 70.40625 258.007812 73.5625 253.628906 76.207031 C 249.601562 78.640625 245.332031 80.699219 240.890625 82.269531 C 236.8125 83.710938 232.542969 84.746094 228.210938 84.980469 C 227.609375 85.011719 227.003906 85.03125 226.398438 85.03125 C 223.210938 85.03125 219.980469 84.546875 217.089844 83.199219"/></g></g></svg>